<svg width="353" height="328" viewBox="0 0 353 328" fill="none" xmlns="http://www.w3.org/2000/svg">
<path d="M197.044 112.739C197.423 105.85 199.636 99.0859 201.232 92.4125C204.915 77.0141 207.695 60.8484 213.789 46.1726C215.82 41.2806 217.484 35.876 220.111 42.8951C224.394 54.3389 228.314 65.928 232.512 77.4053C233.209 79.3111 232.767 82.6361 234.75 83.0669C236.657 83.4813 243.461 80.4711 244.588 80.1066C253.768 77.1363 262.895 73.6852 272.369 71.7464C273.851 71.4431 275.495 70.4378 275.86 72.1698C277.377 79.3718 275.165 87.2398 275.117 94.5182C275.093 98.2029 274.979 100.56 278.616 101.791C283.272 103.368 288.685 103.477 293.165 105.421C294.466 105.985 290.983 107.29 289.694 107.883C285.531 109.802 281.241 111.365 276.929 112.913C272.604 114.465 268.282 116.004 264.002 117.679C262.318 118.338 259.564 118.941 258.131 120.166C256.747 121.349 264.164 123.749 257.338 126.3C249.917 129.073 242.374 129.164 234.604 128.421C233.502 128.316 228.331 127.175 226.965 128.128C225.942 128.843 226.503 134.268 226.368 135.319C225.816 139.608 224.059 145.41 220.639 148.318C219.477 149.307 215.55 152.675 213.814 152.448C213.094 152.354 212.762 151.523 212.055 151.354C209.603 150.767 205.572 153.101 203.492 153.833C196.203 156.399 189.241 158.837 181.487 156.503C174.606 154.432 174.394 148.02 173.667 141.798C173.475 140.161 171.68 126.442 174.76 126.119C175.43 126.049 180.02 133.472 180.14 134.291C180.253 135.062 178.803 133.476 178.211 132.969C175.872 130.964 174.163 128.307 172.444 125.789C166.573 117.192 160.589 108.569 156.23 99.0859C154.572 95.4776 153.996 96.3813 157.323 97.177C158.432 97.4423 159.983 99.4138 157.691 98.612C150.208 95.9949 143.034 90.4171 136.624 85.9398C135.35 85.0502 119.317 73.0098 119.215 75.3398C118.924 82.0171 119.392 88.7554 119.385 95.4369C119.374 106.217 117.773 117.61 119.306 128.309C119.878 132.307 121.54 138.893 126.606 138.774C136.312 138.546 147.209 129.122 152.205 121.547C155.331 116.808 150.536 117.272 147.333 118.137C132.121 122.243 116.5 130.258 104.682 140.639C99.5339 145.161 94.3301 150.421 90.3362 156.03C89.7169 156.9 87.83 159.658 88.6316 161.123C89.5417 162.786 94.3688 162.012 95.3573 161.946C104.78 161.313 113.727 158.195 122.607 155.18C139.999 149.274 157.357 141.701 175.651 138.979C179.484 138.409 176.592 139.976 175.176 140.961C171.06 143.827 166.876 146.502 163.247 150.007C156.343 156.673 144.891 168.557 145.81 179.102C146.693 189.221 159.544 194.51 167.822 197.052C176.955 199.856 187.19 200.743 195.918 204.745C197.805 205.61 197.056 206.763 197.438 208.401C198.1 211.242 204.587 214.304 206.775 215.2C221.073 221.055 238.036 220.366 253.089 222.909C264.221 224.79 275.637 229.196 287.057 228.265C297.952 227.377 300.946 220.892 301.226 210.325C301.413 203.286 299.485 196.282 297.66 189.566C295.53 181.723 293.192 174.048 288.465 167.31C278.8 153.534 263.705 145.668 247.017 144.262C242.737 143.902 248.128 151.803 248.708 153.46C252.704 164.864 253.835 177.479 253.481 189.513C253.439 190.948 251.087 200.877 254.77 197.268C264.068 188.155 273.925 176.358 279.398 164.542C283.393 155.918 284.996 145.349 277.679 137.938C274.264 134.479 268.946 133.59 264.396 132.928C254.453 131.48 245.259 132.873 235.623 135.737C220.487 140.235 205.139 146.356 192.059 155.327C180.896 162.983 171.77 173.183 162.702 183.105C159.592 186.507 155.097 190.759 152.751 194.981C152.497 195.44 151.963 196.851 152.923 197.08C154.884 197.549 162.458 189.939 163.154 189.35C169.3 184.145 175.108 178.665 180.532 172.701C188.83 163.575 197.791 153.91 203.53 142.879C206.793 136.607 209.109 129.727 210.643 122.84C211.071 120.922 212.993 118.097 211.369 116.989C209.576 115.766 207.629 119.208 205.888 120.505C197.116 127.04 188.701 134.033 179.886 140.516C163.815 152.336 147.085 159.566 127.741 164.378C125.994 164.813 121.703 165.78 122.345 164.098C123.436 161.243 126.726 158.383 128.844 156.484C145.191 141.829 163.768 129.766 183.141 119.554C191.316 115.245 199.596 111.087 208.203 107.7C209.698 107.112 214.116 106.143 212.578 105.678C205.588 103.565 196.825 103.946 189.659 103.564C182.043 103.159 174.491 103.298 166.878 103.691C164.828 103.797 162.779 103.921 160.73 104.054C159.42 104.139 155.888 103.536 156.815 104.464C157.501 105.152 161.614 105.323 162.342 105.45C166.757 106.215 170.985 107.349 175.237 108.796C180.073 110.441 186.42 112.058 190.564 115.268C192.743 116.956 189.328 121.565 188.49 123.004C185.378 128.342 181.979 133.558 178.561 138.703C177.39 140.465 175.041 144.796 173.9 143.014C172.268 140.464 171.821 135.547 171.21 132.828C169.504 125.241 167.895 117.656 167.074 109.912C165.393 94.055 167.064 76.7639 171.797 61.5363C173.409 56.3504 175.66 51.9517 180.547 56.5569C189.197 64.7095 194.258 78.611 198.939 89.1699C202.985 98.2953 207.234 107.49 210.442 116.954C213.443 125.809 217.315 137.736 215.88 147.254C214.364 157.302 201.028 161.101 192.661 161.57C183.112 162.106 180.29 160.964 179.272 151.371C177.527 134.916 178.099 117.873 179.911 101.457C180.649 94.7606 181.717 83.3079 189.727 80.7548C196.015 78.7504 203.273 88.3606 206.28 92.2727C214.178 102.548 223.369 115.396 226.859 128.103C228.408 133.741 219.428 135.294 215.795 136.345C213.795 136.924 200.252 141.175 198.268 138.44C197.139 136.882 213.079 121.241 214.279 120.155C217.192 117.517 246.569 94.7359 249.687 102.281C252.776 109.757 246.018 122.918 242.46 129.365C241.13 131.775 237.796 135.1 237.145 137.822C236.855 139.032 238.521 135.75 239.231 134.729C244.767 126.776 253.078 117.998 261.268 112.684C266.284 109.429 265.248 129.131 264.927 131.333C262.692 146.683 255.606 164.886 243.724 175.393C241.26 177.572 239.265 177.889 236.67 176.1C232.779 173.418 239.868 169.426 242.02 167.501C248.159 162.007 255.226 156.64 263.164 154.036C270.692 151.568 255.852 167.326 255.334 167.842C242.946 180.197 225.823 188.061 208.389 189.991C202.381 190.657 195.695 190.153 189.923 188.194C185.858 186.814 186.525 183.815 187.743 180.413C197.316 153.659 232.606 137.207 257.876 152.21C268.079 158.268 268.367 172.818 264.631 182.788C258.597 198.894 245.006 210.225 227.965 213.121C215.874 215.176 203.696 206.916 196.273 198.094C188.669 189.057 189.741 178.308 202.339 174.924C216.744 171.054 233.934 179.407 244.576 188.73C252.482 195.658 261.101 207.419 252.145 216.846C244.704 224.678 229.699 222.384 220.677 219.498C212.279 216.81 197.474 212.163 201.735 200.448C204.436 193.022 210.284 185.447 218.695 185.234C230.344 184.94 242.778 198.298 245.059 209.239C247.617 221.512 236.66 233.583 226.198 238.031C213.83 243.288 198.877 234.585 188.864 227.978C178.469 221.121 165.753 208.452 164.432 195.268C163.855 189.498 167.295 179.547 175.006 182.194C179.476 183.728 180.818 188.7 179.607 192.836C176.926 201.998 162.659 202.99 154.895 202.604C146.081 202.165 137.17 199.849 128.809 197.15C124.724 195.832 119.304 194.218 116.735 190.371C112.85 184.554 112.983 172.986 121.36 171.346C129.788 169.695 139.851 176.055 145.335 181.87C149.779 186.581 156.937 196.435 155.513 203.462C153.827 211.78 136.543 206.181 132.014 205.026C124.663 203.152 118.008 200.055 111.472 196.259C107.304 193.838 99.945 190.378 98.0676 185.345C95.0367 177.218 103.223 166.775 110.788 164.701C120.357 162.077 132.286 162.812 141.975 164.003C154.342 165.523 164.475 171.452 172.897 180.529C181.125 189.396 159.915 191.056 155.209 190.967C139.311 190.666 117.799 188.132 105.943 176.04C99.757 169.73 103.809 162.522 108.716 157.096C117.533 147.344 128.379 143.022 141.334 141.81C151.185 140.889 164.381 141.52 171.854 149.222C176.271 153.775 171.587 162.044 168.101 165.537C161.042 172.609 147.43 172.017 138.574 169.775C130.436 167.715 117.521 164.066 114.256 155.053C111.705 148.013 116.514 139.174 121.3 134.362C130.629 124.982 142.777 120.393 155.987 121.067C156.682 121.103 167.379 122.17 166.61 124.057C165.437 126.93 159.72 126.249 157.61 126.17C151 125.923 144.856 124.225 138.6 122.11C128.905 118.833 118.789 115.266 109.878 110.151C104.83 107.253 99.9178 103.152 96.9032 98.0673C94.1898 93.4906 96.3181 88.8027 99.0983 84.8222C104.177 77.5514 114.177 69.2055 123.146 67.8234C130.205 66.7356 139.05 66.7633 144.288 72.3564C147.19 75.4547 147.957 80.5983 145.982 84.3614C141.117 93.6323 130.533 94.9743 120.967 93.0464C115.601 91.9648 87.0942 85.202 91.2427 76.2079C95.2407 67.5401 109.057 61.0554 117.116 57.3632C127.657 52.5341 143.486 46.1634 155.142 50.4432C166.132 54.4781 164.479 71.0496 163.118 80.3026C161.271 92.8487 157.249 103.231 149.045 112.859C144.997 117.608 146.53 111.826 147.057 108.342C149.384 92.9357 157.233 82.9515 170.528 74.666C180.181 68.6502 190.747 66.1908 201.856 64.4602C214.671 62.4638 227.161 61.7384 239.867 64.6459C248.841 66.6997 257.074 68.8724 259.209 78.7392C261.347 88.6238 256.306 100.527 248.613 106.926C234.031 119.054 213.242 113.969 196.983 109.395C185.844 106.261 174.56 102.808 164.263 97.4151C162.344 96.4097 150.425 91.0008 152.257 86.9101C153.819 83.4246 158.659 80.772 161.856 79.4769C170.88 75.8219 181.312 73.8669 190.915 72.6573C221.799 68.767 254.327 77.5717 281.239 92.3903C290.404 97.4366 300.226 102.945 307.168 111.015C309.871 114.157 314.053 119.944 313.141 124.53C312.191 129.306 306.549 133.859 302.998 136.585C294.838 142.85 284.402 146.445 274.653 149.338C264.813 152.258 251.149 155.033 240.926 152.048C237.815 151.139 243.302 142.378 243.871 141.302C249.128 131.359 256.623 121.302 267.908 118.089C275.443 115.944 285.395 114.435 292.909 117.595C300.578 120.82 306.973 130.687 310.786 137.662C317.885 150.648 334.033 195.711 305.319 194.466C293.069 193.934 281.404 187.223 273.115 178.606C266.56 171.791 258.708 159.451 265.94 150.098C270.934 143.638 279.65 145.213 286.391 147.506C295.789 150.703 304.626 159.433 309.321 168.033C312.662 174.151 317.111 187.432 310.742 193.069C303.117 199.817 289.472 198.405 280.26 197.078C277.313 196.654 274.607 196.214 275.565 192.925C277.457 186.431 283.115 179.804 289.937 178.364C299.384 176.37 308.883 180.15 316.161 186.058C325.083 193.3 316.266 201.28 309.453 205.969C296.285 215.031 279.517 216.175 264.048 213.856C257.02 212.803 250.1 210.767 243.323 208.674C241.796 208.203 239.486 208.316 238.899 206.831C238.208 205.079 240.262 202.403 241.26 201.184C243.472 198.483 248.079 199.369 250.921 200.688C253.059 201.681 254.369 203.265 253.178 205.643C249.981 212.024 240.476 214.317 234.209 215.176C228.452 215.964 222.593 216.462 216.793 216.81C215.163 216.908 210.637 217.841 211.894 216.798C212.597 216.214 213.059 217.449 213.412 217.648C214.261 218.126 214.084 218.229 214.557 219.119C216.385 222.562 219.216 225.381 222.201 227.832C227.66 232.315 234.992 233.935 241.98 233.686C251.438 233.348 262.586 231.223 270.669 226.067C273.901 224.005 277.449 219.192 276.311 214.993C275.628 212.469 267.059 218.955 266.75 219.142C261.112 222.558 251.729 226.856 248.291 232.8C246.356 236.148 252.791 239.984 254.867 241.445C258.302 243.863 266.155 247.751 265.698 240.593C265.178 232.438 262.165 217.823 254.37 213.487C244.559 208.03 232.719 211.264 225.201 219.046C219.687 224.753 216.698 233.482 217.511 241.341C217.861 244.727 220.671 248.391 215.831 247.114C201.517 243.336 187.638 237.684 173.867 232.324C171.4 231.364 165.579 228.045 163.31 230.623C162.527 231.513 161.791 230.68 161.467 229.882C159.96 226.168 163.316 221.153 165.356 218.315C171.176 210.216 184.176 211.088 192.846 211.643C202.499 212.262 220.798 212.945 226.444 223.234C228.25 226.524 227.698 231.947 224.979 234.521C218.646 240.518 203.885 237.436 196.412 235.846C194.941 235.533 187.554 234.878 187.008 232.923C186.326 230.483 186.26 227.718 187.115 225.278C188.71 220.726 194.762 219.49 187.694 224.107C181.534 228.131 174.752 229.219 167.452 229.106C160.304 228.996 149.383 228.483 143.31 223.818C139.824 221.141 145.174 216.993 145.3 219.879C145.676 228.516 128 235.749 124.041 226.469C121.528 220.578 125.817 211.146 128.395 205.919C128.759 205.182 134.104 198.665 134.152 199.214C134.427 202.359 122.673 203.736 121.003 203.815C113.556 204.165 102.095 203.446 95.9333 198.492C93.1935 196.289 104.333 188.653 106.535 192.496C113.404 204.483 79.5152 203.574 73.8056 201.207C68.402 198.967 64.5981 194.521 64.3913 188.628C64.054 179.017 68.2065 172.651 75.8401 167.044C77.0842 166.13 85.7159 160.221 87.7175 161.503C90.5468 163.314 86.0546 167.237 84.9141 167.904C82.5433 169.293 69.7362 175.239 67.723 171.725C66.2243 169.11 70.9786 161.303 71.9502 159.528C75.562 152.929 80.3211 147.214 85.7802 142.068C90.4004 137.713 95.2529 134.037 101.201 131.725C102.546 131.202 107.808 128.977 109.548 129.68C109.885 129.816 98.5623 141.142 96.841 142.132C93.103 144.282 88.5492 145.708 84.2451 144.732C79.4395 143.642 83.7961 137.907 85.3504 135.417C90.1446 127.737 97.8606 120.083 106.796 117.721C112.795 116.135 124.07 114.777 127.056 122.342C129.567 128.704 119.646 135.355 114.526 131.394C110.657 128.401 109.941 120.663 110.26 116.379C110.973 106.809 114.692 95.3654 125.226 92.6057C135.073 90.026 147.304 94.2745 155.581 99.4545C159.621 101.983 162.053 103.638 157.676 106.653C154.097 109.119 152.997 108.121 151.763 104.154C147.564 90.6619 148.774 75.6457 156.948 63.8593C164.709 52.6669 174.531 43.2608 188.334 41.2069C191.752 40.6984 196.801 39.8686 200.181 41.2714C203.297 42.5647 205.692 46.3377 207.69 48.83C214 56.7024 220.809 65.5234 224.903 74.7995C228.009 81.8366 220.255 84.0368 214.347 85.2965C212.271 85.7393 201.932 87.4715 200.598 84.7395C198.075 79.5714 216.1 78.2021 217.116 78.1008C236.255 76.1928 256.632 78.4772 275.003 84.2008C279.016 85.4509 283.416 87.3153 286.322 90.5377C289.948 94.5594 286.774 100.606 284.699 104.518C278.071 117.017 266.716 129.229 252.558 132.828C247.761 134.047 242.619 134.05 237.72 133.694C235.952 133.566 231.237 133.33 232.612 132.21C238.632 127.311 247.937 124.648 255.375 123.398C276.297 119.883 300.06 121.872 318.359 133.374C327.641 139.208 324.59 148.815 319.516 156.701C312.623 167.413 303.332 176.155 290.923 179.872C287.339 180.945 278.124 182.158 275.284 178.301C272.117 174.002 274.546 164.007 276.641 159.954C282.044 149.506 298.266 146.331 308.707 145.883C314.385 145.64 323.46 145.621 322.897 153.356C322.385 160.4 313.828 165.979 308.2 168.812C297.285 174.305 279.747 178.034 268.027 172.973C263.055 170.827 269.363 164.996 272.264 164.333C278.087 163.002 284.492 172.228 286.739 176.401C291.385 185.028 286.543 189.731 278.693 194.084C265.007 201.674 245.639 202.346 230.877 198.289C223.934 196.38 217.702 193.654 212.087 189.08C208.295 185.99 203.017 181.484 201.157 176.736C198.949 171.099 204.712 164.815 209.39 162.653C214.468 160.306 221.226 160.694 226.458 162.32C230.907 163.703 229.648 170.013 228.399 173.448C224.669 183.708 214.253 186.544 204.239 188.101C196.661 189.278 189.5 188.13 182.111 186.437C178.909 185.704 170.827 184.687 168.631 181.155C164.619 174.703 178.851 163.27 182.331 160.484C195.018 150.33 214.438 148.355 227.583 158.398C236.733 165.389 240.017 176.198 239.364 187.521C238.643 200.047 231.641 208.578 220.611 213.832C206.031 220.776 193.93 218.357 179.256 212.921C170.363 209.626 162.34 205.54 154.613 200.029C152.588 198.586 144.5 192.258 142.262 190.34C141.474 189.665 138.528 187.293 138.153 185.615C136.705 179.125 151.777 172.14 155.654 170.643C169.051 165.467 188.724 168.522 200.397 176.63C208.062 181.953 220.379 191.904 214.414 202.508C206.78 216.076 185.131 215.18 172.403 213.414C156.627 211.227 138.617 208.246 124.18 201.169C116.451 197.381 113.482 192.242 116.124 184.163C116.574 182.788 119.013 178.162 121.335 179.272C124.242 180.662 118.067 184.905 117.239 185.29C106.295 190.386 90.7048 186.13 79.9797 182.59C73.7176 180.523 61.1263 176.142 60.8067 167.789C60.6157 162.797 65.9357 158.736 69.6066 156.497C77.7521 151.53 87.7222 148.1 97.3354 148.2C113.981 148.373 134.059 157.288 142.763 171.975C145.723 176.969 145.144 183.657 141.89 188.454C140.266 190.849 142.678 185.419 142.827 185.161C148.479 175.397 159.932 167.551 169.012 161.415C184.097 151.22 205.254 136.996 224.65 143.44C239.021 148.215 248.856 163.849 255.632 176.295C260.173 184.635 264.525 193.198 266.405 202.595C267.249 206.815 268.858 215.15 266.443 219.331C264.969 221.883 260.248 220.602 258.231 219.874C252.718 217.883 248.545 213.043 244.781 208.836C238.4 201.705 232.774 194.006 227.749 185.866C220.939 174.834 213.618 162.898 211.669 149.84C210.683 143.23 210.023 134.06 213.051 127.794C215.92 121.856 223.054 118.311 228.873 116.087C242.461 110.891 261.334 112.778 272.063 123.087C278.588 129.355 280.492 135.343 277.856 144.08C273.872 157.285 255.122 157.471 243.873 155.372C223.038 151.484 204.423 139.594 187.224 127.828C178.53 121.881 170.343 115.522 163.265 107.691C161.396 105.623 155.17 100.099 158.853 96.57C167.411 88.3692 184.934 88.1477 195.768 88.0371C203.36 87.9596 210.75 89.0836 218.153 90.6597C225.193 92.1586 231.723 93.5385 235.988 99.7901C242.249 108.965 236.431 119.108 230.893 127.197C223.974 137.302 213.723 142.612 201.626 143.957C191.317 145.104 182.866 142.533 174.757 136.146C168.661 131.345 161.345 122.501 166.822 114.566C173.786 104.476 187.108 102.937 198.369 102.504C202.483 102.346 221.304 102.167 219.438 110.163C216.402 123.17 203.639 131.936 192.783 138.063C184.719 142.614 176.045 145.453 167.079 147.594C161.248 148.986 153.344 151.306 147.198 149.836C145.393 149.404 146.014 146.869 147.22 145.987C148.867 144.782 152.549 145.311 154.197 145.448C162.977 146.178 170.769 148.378 178.526 152.614C190.905 159.374 203.834 167.63 211.622 179.763C216.594 187.51 201.411 192.142 196.271 193.566C186.144 196.372 174.011 199.698 163.4 198.801C159.033 198.431 159.812 195.832 161.881 192.637C170.19 179.807 183.982 173.826 198.301 170.216C210.17 167.224 221.349 166.176 233.451 168.595C246.724 171.249 261.555 175.998 272.172 184.741C280.456 191.563 286.57 199.321 285.056 210.349C283.85 219.129 277.218 226.462 269.081 229.578C257.946 233.842 247.992 233.251 237.291 228.261C230.099 224.907 229.184 216.159 230.889 209.031C232.606 201.853 236.755 189.994 245.611 189.876C254.831 189.753 264.688 192.147 273.422 194.844C278.208 196.322 283.625 198.168 286.643 202.459C289.918 207.114 285.448 213.087 282.018 216.321C271.527 226.213 256.91 229.36 243.074 230.991C241.603 231.165 226.804 233.889 230.318 228.314C236.447 218.594 246.567 216.182 257.388 217.764C263.479 218.654 275.901 221.49 275.988 229.958C276.069 237.915 262.621 239.037 257.513 239.459C242.607 240.689 226.861 235.071 212.61 231.638C195.074 227.413 177.453 222.904 160.246 217.466C157.466 216.588 151.851 215.606 150.24 212.679C148.683 209.85 147.947 206.358 146.905 203.312C146.182 201.199 146.85 202.399 145.374 203.769C139.852 208.892 134.654 214.34 128.857 219.164C126.96 220.742 120.816 228.023 118.928 223.599C115.695 216.028 112.978 208.296 110.43 200.462C106.895 189.597 103.722 178.619 100.139 167.767C98.4344 162.604 101.909 171.088 102.124 171.983C103.452 177.525 103.876 183.21 103.691 188.897C103.6 191.714 103.772 196.673 100.984 198.652C97.1786 201.353 95.2327 200.021 92.6186 197.175C91.6137 196.081 88.3205 193.625 89.8827 192.031C97.7401 184.011 106.866 179.813 117.222 175.819C119.309 175.014 125.554 172.56 123.509 173.469C120.685 174.723 117.776 175.809 114.921 176.99C105.41 180.924 91.9539 183.827 87.5658 194.208C78.5713 215.487 121.362 222.487 132.985 224.903C141.53 226.68 150.194 228.419 158.963 228.46C161.25 228.471 167.538 228.804 169.638 227.01C170.921 225.913 169.069 222.059 168.651 221.123C165.832 214.827 160.46 209.077 155.312 204.612C146.01 196.543 130.47 191.928 118.298 191.343C111.089 190.997 111.016 195.975 112.879 201.797C115.936 211.35 124.342 220.371 131.934 226.635C135.376 229.475 142.886 235.93 147.855 235.008C148.786 234.836 148.963 232.035 149.081 231.447C150.721 223.261 152.352 215.112 154.295 206.988C154.855 204.649 155.285 202.013 156.039 199.697C156.169 199.297 156.371 200.474 156.466 200.884C158.209 208.365 153.247 218.55 151.326 225.661C151.08 226.57 148.894 232.421 149.669 233.684C150.319 234.742 151.265 231.778 152.103 230.861C160.729 221.42 174.107 215.931 185.627 211.002C187.697 210.116 192.741 207.208 192.187 209.39C191.65 211.509 189.619 214.132 188.36 215.847C186.379 218.545 184.031 220.946 181.613 223.251C179.161 225.587 179.698 224.768 181.508 223.375C190.484 216.468 200.497 210.665 210.398 205.215C217.194 201.474 224.08 197.774 231.355 195.035C233.666 194.166 239.465 191.623 242.162 193.504C244.552 195.171 243.714 200.49 243.57 202.634C243.14 209.025 242.326 215.468 240.949 221.727C239.573 227.983 237.364 233.894 235.079 239.856C234.204 242.138 233.205 247.1 231.404 249.117C230.764 249.834 229.104 249.085 228.635 248.492C226.633 245.966 233.703 238.753 234.763 237.423C237.643 233.804 240.793 230.435 243.756 226.889C244.764 225.682 248.037 222.699 246.506 223.056C245.31 223.335 241.141 226.95 240.583 227.327C233.884 231.852 227.016 236.115 220.221 240.493C216.978 242.582 213.802 244.796 210.514 246.815C209.999 247.131 208.46 247.139 208.871 247.582C210.44 249.272 218.831 250.652 220.577 251.205C234.158 255.506 247.812 259.384 262.104 260.314C267.199 260.646 277.581 261.078 280.424 255.528C282.651 251.18 282.59 246.195 281.534 241.5C280.548 237.117 279.829 239.873 278.238 242.919C277.224 244.861 271.533 253.93 275.032 255.698C277.165 256.776 280.103 256.599 282.367 256.479C288.599 256.149 295.936 255.998 301.81 253.721C322.162 245.835 302.946 217.474 289.576 213.039C284.619 211.395 281.408 212.894 281.305 218.208C281.232 221.987 288.839 219.944 290.623 219.614C298.227 218.206 309.551 216.516 313.764 208.909C316.201 204.507 310.862 197.686 307.358 195.328C302.482 192.045 298.118 195.969 294.531 199.519C290.455 203.552 282.608 219.092 285.918 214.41C286.383 213.751 287.827 213.609 288.424 213.475C292.074 212.651 295.636 211.91 299.127 210.497C305.214 208.033 318.416 203.639 316.713 195.17C314.707 185.195 301.702 178.248 293.115 174.933C290.866 174.065 268.872 167.691 267.55 171.213C267.446 171.489 268.153 171.223 268.432 171.124C270.684 170.329 272.945 169.585 275.223 168.857C287.822 164.83 300.973 161.586 310.872 152.164C317.958 145.419 312.76 137.879 305.357 134.231C294.613 128.935 280.971 126.561 269.186 129.171C265.454 129.998 271.3 126.576 272.231 125.671C277.855 120.208 283.515 112.626 283.647 104.379C283.755 97.6737 275.658 98.7884 271.337 99.5263C259.959 101.469 249.759 106.76 242.909 116.226C240.132 120.062 244.338 117.901 245.825 116.549C250.41 112.379 253.879 104.456 255.864 98.6692C256.051 98.1252 256.943 92.2497 256.284 93.1569C254.999 94.9276 254.327 97.728 253.712 99.6886C250.921 108.587 248.198 117.855 247.434 127.187C247.29 128.945 246.664 143.392 249.814 144.145C252.804 144.861 260.91 137.078 262.735 135.337C268.933 129.421 279.808 118.656 279.018 109.184C278.533 103.366 273.199 94.2878 268.012 102.323C264.455 107.832 263.98 115.368 263.725 121.654C263.369 130.406 264.205 138.295 269.056 145.829C276.987 158.146 291.474 169.388 307.056 167.491C319.824 165.936 297.55 125.827 294.467 120.625C293.731 119.382 291.702 115.628 292.054 119.449C292.423 123.444 293.477 127.458 294.611 131.286C298.748 145.244 304.325 158.667 311.614 171.275C311.917 171.798 317.765 182.886 317.091 176.851C315.916 166.332 317.121 155.59 317.031 145.03C316.958 136.457 316.995 127.158 315.042 118.773C314.43 116.147 311.57 120.678 310.947 121.498C305.152 129.133 300.288 138.099 301.146 147.929C301.795 155.381 304.122 153.613 309.01 149.623C318.539 141.844 325.512 133.598 329.522 121.75C333.13 111.087 328.909 103.092 320.833 95.4992C314.412 89.4626 306.334 86.3669 298.106 83.6648C289.44 80.8188 280.429 78.3582 271.212 78.6167C262.798 78.8527 252.57 80.3141 253.052 90.4006C253.357 96.7759 259.127 101.895 264.599 104.388C277.376 110.209 293.603 112.16 306.899 107.134C314.578 104.231 322.255 95.5998 320.073 86.786C317.956 78.235 310.498 74.1595 302.317 77.6372C287.309 84.0176 277.376 96.6032 273.877 112.22C273.623 113.352 268.831 131.147 275.23 125.491C290.155 112.298 310.478 76.9445 290.409 60.308C274.48 47.1025 251.822 47.609 233.02 53.691C218.216 58.4798 204.577 72.2925 200.529 87.5295C198.926 93.565 199.947 94.1079 205.644 93.9916C217.872 93.742 234.2 92.5637 244.049 84.3931C246.693 82.1996 250.05 74.9293 245.695 72.6631C243.736 71.6439 240.93 72.6626 239.062 73.1721C231.616 75.2034 224.198 77.6402 216.916 80.186C207.421 83.5059 198.112 87.2734 189.061 91.6717C187.476 92.4418 185.922 93.2754 184.391 94.1467C184.127 94.2967 183.401 94.8198 183.69 94.7276C184.613 94.4335 185.46 93.9418 186.335 93.5267C198.379 87.8104 209.2 80.4156 219.74 72.2924C222.973 69.8009 229.091 64.1464 220.799 68.8038C213.428 72.9437 206.439 77.8305 199.634 82.8251C191.722 88.6325 182.741 94.7018 178.044 103.63C174.759 109.873 178.265 109.612 183.58 108.172C199.542 103.848 217.144 96.6616 225.766 81.5168C231.837 70.8521 222.397 58.3362 213.121 53.3469C194.647 43.4108 172.351 43.4229 152.258 47.1714C134.638 50.4586 112.844 55.6603 111.16 76.6313C110.288 87.497 120.257 95.4222 129.501 98.9792C135.869 101.429 143.714 101.85 150.364 102.023C163.284 102.359 179.54 102.983 191.082 95.8968C203.062 88.541 196.451 72.1236 186.72 66.4153C170.583 56.9489 155.336 64.2689 140.453 72.7486C134.831 75.9518 123.123 81.5032 120.41 88.6474C119.265 91.6624 122.412 92.7556 124.546 92.6303C134.952 92.0191 144.832 85.4495 152.296 78.6124C161.939 69.78 165.14 55.5536 163.143 42.9646C162.496 38.8872 161.767 29.436 158.47 26.2059C156.48 24.2558 153.794 36.8964 153.713 37.4911C152.147 48.8784 153.379 60.4871 159.512 70.3474C160.295 71.6067 164.795 79.828 166.42 75.2552C168.953 68.1287 165.949 61.1636 162.416 54.7648C158.712 48.0573 153.374 42.6487 147.851 37.4362C141.42 31.3667 133.82 23.8693 124.908 21.6584C114.994 19.199 117.792 36.3913 117.84 41.8205C117.981 57.5971 122.014 72.1934 131.092 85.2901C134.196 89.7683 138.032 93.7383 142.037 97.4125C143.177 98.4578 145.561 101.454 145.92 99.9503C146.211 98.7342 143.183 93.5342 143.036 93.236C137.814 82.6154 131.888 72.5848 125.073 62.8959C117.842 52.6169 110.346 42.3057 101.783 33.0781C100.054 31.2148 91.8357 21.4291 87.5905 22.7984C80.6364 25.0415 97.3447 64.2163 98.7452 67.5251C106.763 86.4673 119.218 103.686 133.495 118.419C136.932 121.966 140.595 125.278 144.227 128.62C146.168 130.406 140.073 125.367 138.033 123.696C126.13 113.943 113.418 108.024 98.6372 103.646C94.3206 102.367 83.6701 97.9976 85.2059 102.229C86.1978 104.963 90.1976 108.243 92.3121 110.066C100.269 116.926 111.419 120.765 121.093 124.433C124.833 125.852 128.619 127.279 132.433 128.493C134.435 129.13 128.546 126.863 126.515 126.329C113.684 122.954 100.207 122.741 87.4611 119.083C79.1909 116.711 75.3608 108.401 74.1891 100.418C72.8218 91.1023 77.2992 84.2079 83.4713 77.5672C84.997 75.9256 86.8739 74.0025 88.8607 72.8692C91.5844 71.3156 85.1849 77.9517 83.4311 80.5511C75.6582 92.0716 71.0752 103.608 67.5264 117.01C67.0738 118.719 63.059 130.065 66.8779 131.298C70.4805 132.462 75.6826 131.681 79.2282 131.446C87.4147 130.903 95.594 129.98 103.733 128.962C114.272 127.644 145.635 121.949 135.156 123.681C125.031 125.354 115.155 127.008 104.869 127.812C81.0594 129.674 57.2459 128.059 33.458 129.441C23.9626 129.993 41.5844 133.983 42.7149 134.387C68.9302 143.753 94.0689 156.547 117.496 171.544C121.208 173.92 132.443 179.616 123.002 181.692C115.307 183.383 104.417 185.599 96.762 182.825C91.9698 181.088 92.8743 173.975 92.8739 170.295C92.8724 158.868 93.9957 147.548 95.1916 136.199C95.9292 129.2 96.6182 122.43 96.4268 115.391C96.3529 112.672 97.0745 104.96 95.6378 107.269C91.7213 113.564 89.7811 122.844 87.5883 129.816C84.2167 140.534 81.618 151.367 80.8617 162.632C80.0017 175.443 79.9534 191.217 85.935 203.06C89.8343 210.781 97.8282 217.084 105.793 220.158C120.925 225.999 137.871 214.975 149.865 207.051C159.293 200.821 169.457 194.429 177.431 186.291C180.289 183.374 169.986 189.676 166.444 191.708C151.599 200.225 139.644 210.39 131.02 225.294C127.082 232.1 118.805 244.516 127.735 251.076C138.718 259.143 155.47 261.353 168.347 264.007C189.573 268.383 212.819 269.931 234.308 266.388C235.411 266.206 236.498 265.926 237.566 265.596C239.143 265.108 238.943 264.94 237.619 264.748C233.986 264.221 230.212 264.121 226.566 263.713C224.047 263.431 188.718 259.091 188.918 258.413C189.307 257.099 196.975 255.392 197.298 255.291C204.289 253.118 211.299 251.006 218.358 249.065C230.089 245.84 242.126 243.034 253.189 237.826C258.303 235.419 251.251 238.533 250.193 239.242C248.842 240.148 238.214 248.803 241.428 251.328C243.235 252.748 247.235 253.223 249.094 253.535C259.136 255.221 269.378 256.334 279.546 256.852C286.1 257.187 291.468 258.38 289.58 251.507C289.296 250.471 289.661 249.753 289.755 248.742C290.115 244.88 281.447 239.569 279.03 237.421" stroke="#4E4E4E" stroke-width="0.5" stroke-linecap="round"/>
<path d="M139.962 233.12C118.398 231.007 95.4005 228.642 74.0084 233.211C70.4 233.982 50.7559 237.781 55.0917 246.123C56.186 248.229 58.736 250.323 60.376 251.878C69.1489 260.194 81.5995 264.966 92.7348 269.122C99.378 271.601 107.127 274.24 114.23 271.868C118.326 270.5 117.968 264.738 118.218 261.297C119.262 246.878 115.024 230.083 108.131 217.424C105.609 212.793 98.6189 203.936 96.0185 213.779C94.2271 220.559 96.5371 228.849 98.4981 235.326C101.128 244.012 107.52 251.57 115.384 256.092C121.828 259.797 154.928 271.886 156.179 256.681C157.611 239.288 149.888 219.809 137.584 207.705C131.662 201.879 124.252 194.977 116.379 191.857C107.808 188.461 106.679 193.505 106.834 201.099C107.017 210.051 107.945 219.173 110.162 227.863C113.724 241.831 118.909 257.562 129.11 268.168C135.494 274.805 144.358 282.397 153.277 285.398C160.031 287.671 162.485 284.008 164.456 278.082C170.241 260.693 166.997 235.965 154.431 222.063C149.899 217.048 143.334 214.579 136.881 213.15C129.703 211.561 124.076 214.8 120.171 220.903C118.2 223.984 116.618 227.944 118.398 231.443C118.741 232.115 120.419 233.907 120.141 231.822C119.734 228.762 117.189 226.323 115.034 224.389C107.849 217.942 101.258 215.147 91.6026 214.407C77.5748 213.331 60.504 214.803 49.0404 224.021C47.9962 224.861 51.6801 224.663 53.0184 224.598C67.6966 223.891 82.3907 223.403 97.0614 222.56C106.968 221.99 116.743 221.016 126.51 219.276C126.842 219.217 127.812 218.938 127.478 218.983C122.62 219.641 117.818 220.708 113.076 221.937C107.768 223.314 66.7205 234.317 77.0779 245.096C81.7183 249.925 91.3248 250.237 97.3863 250.926C112.215 252.612 127.306 253.257 142.198 254.123C152.078 254.697 162.04 255.219 171.93 254.499C172.405 254.465 172.89 254.474 173.35 254.352C173.64 254.275 172.749 254.337 172.45 254.362C167.396 254.769 162.348 255.77 157.343 256.511C147.194 258.012 137.027 259.378 126.882 260.9C126.137 261.011 123.912 261.367 124.642 261.187C127.665 260.442 130.868 259.985 133.92 259.477C146.042 257.46 158.253 255.724 170.512 254.796C173.849 254.544 182.649 253.839 180.432 256.346C173.678 263.981 164.936 271.196 156.778 277.33C147.751 284.117 174.66 262.3 179.266 251.988C181.325 247.38 181.342 241.615 181.025 236.656C180.91 234.851 173.404 242.155 173.332 242.224C166.044 249.202 159.526 256.889 154.417 265.615C151.708 270.239 145.797 278.795 148.185 284.629C150.495 290.276 167.668 274.017 169.347 272.029C174.092 266.41 185.873 248.565 173.786 243.456C168.312 241.141 161.666 247.098 157.806 250.036C148.249 257.31 140.388 266.713 141.071 279.485C141.425 286.118 146.562 290.864 152.213 293.601C160.841 297.778 172.157 295.565 180.949 293.14C188.591 291.031 194.775 286.844 200.916 281.937C206.384 277.569 212.238 273.069 214.321 266.098C214.765 264.609 215.345 260.348 214.238 261.438C210.863 264.759 208.25 269.734 205.695 273.689C205.094 274.618 198.89 287.719 202.18 282.128C205.01 277.318 207.748 272.515 209.291 267.102C210.589 262.549 211.104 258.687 211.646 253.97C211.847 252.225 213.485 243.982 212.131 241.775C211.671 241.026 210.837 242.998 210.385 243.753C209.026 246.025 206.536 250.789 205.534 252.77C201.519 260.713 197.083 268.89 194.47 277.44C193.729 279.866 191.839 286.363 194 285.036C195.048 284.392 197.701 281.111 198.034 280.687C202.06 275.567 205.976 270.125 208.98 264.334C210.469 261.464 225.324 226.941 215.66 226.08C211.52 225.712 207.145 230.441 204.678 232.883C195.733 241.738 188.303 251.538 183.503 263.217C182.587 265.446 175.013 285.413 184.214 283.556C187.724 282.847 190.702 280.217 193.301 277.946C200.215 271.908 206.155 264.813 211.727 257.544C214.232 254.277 216.565 251.099 217.321 246.983C218.058 242.968 216.168 246.318 214.982 247.846C207.334 257.691 194.678 271.793 197.075 285.322C197.332 286.774 197.665 287.739 199.228 286.96C207.119 283.024 214.287 275.846 220.395 269.646C226.769 263.175 233.115 256.09 237.848 248.301C237.875 248.256 241.225 240.087 240.812 242.948C238.558 258.583 232.907 273.585 230.931 289.266C230.822 290.133 230.066 293.977 231.536 291.432C234.885 285.632 238.044 279.83 241.057 273.84C244.871 266.256 249.139 259.119 254.343 252.396C255.646 250.713 257.214 248.882 258.705 247.302C259.102 246.881 259.457 245.826 259.964 246.107C261.172 246.776 260.806 257.644 260.868 258.596C261.374 266.433 261.758 274.52 264.082 282.078C266.572 290.175 267.34 272.786 266.978 270.909C265.668 264.107 260.143 258.206 255.624 253.301C251.572 248.904 246.021 243.771 239.551 246.5C234.546 248.612 235.586 253.395 237.008 257.604C239.954 266.326 247.55 271.251 255.321 275.53C259.807 278 289.942 288.543 289.392 277.168C289.141 271.981 285.273 266.231 282.775 261.965C278.405 254.501 273.217 248.618 266.589 243.126C263.931 240.924 261.301 238.639 258.595 236.499C256.144 234.561 259.033 241.191 259.085 241.331C263.909 254.415 272.596 267.08 284.303 274.978C291.362 279.741 289.497 266.673 289.003 263.305C288.377 259.042 287.165 254.913 286.174 250.729C285.962 249.834 285.277 247.455 284.887 248.289C282.433 253.53 280.788 264.53 283.706 270.121C283.948 270.584 285.804 266.819 285.894 266.603C287.271 263.298 287.686 259.267 287.787 255.718C287.787 255.702 288.209 250.694 288.734 252.539C289.333 254.638 289.861 254.547 291.452 255.883" stroke="#4E4E4E" stroke-width="0.5" stroke-linecap="round"/>
</svg>
